<?xml version="1.0" encoding="UTF-8"?>
<svg xmlns="http://www.w3.org/2000/svg" xmlns:xlink="http://www.w3.org/1999/xlink" width="px" height="px" viewBox="0 0 432 384" version="1.1">
<g id="surface1">
<path style=" stroke:none;fill-rule:nonzero;fill:rgb(0%,0%,0%);fill-opacity:1;" d="M 384 60 C 390.601562 60 396 65.398438 396 72 L 396 312 C 396 318.601562 390.601562 324 384 324 L 48 324 C 41.398438 324 36 318.601562 36 312 L 36 72 C 36 65.398438 41.398438 60 48 60 Z M 48 24 C 21.523438 24 0 45.523438 0 72 L 0 312 C 0 338.476562 21.523438 360 48 360 L 384 360 C 410.476562 360 432 338.476562 432 312 L 432 72 C 432 45.523438 410.476562 24 384 24 Z M 156 192 C 182.507812 192 204 170.507812 204 144 C 204 117.492188 182.507812 96 156 96 C 129.492188 96 108 117.492188 108 144 C 108 170.507812 129.492188 192 156 192 Z M 132 216 C 98.851562 216 72 242.851562 72 276 C 72 282.601562 77.398438 288 84 288 L 228 288 C 234.601562 288 240 282.601562 240 276 C 240 242.851562 213.148438 216 180 216 Z M 282 108 C 272.023438 108 264 116.023438 264 126 C 264 135.976562 272.023438 144 282 144 L 342 144 C 351.976562 144 360 135.976562 360 126 C 360 116.023438 351.976562 108 342 108 Z M 282 180 C 272.023438 180 264 188.023438 264 198 C 264 207.976562 272.023438 216 282 216 L 342 216 C 351.976562 216 360 207.976562 360 198 C 360 188.023438 351.976562 180 342 180 Z M 282 180 "/>
</g>
</svg>
