<?xml version="1.0" encoding="UTF-8"?>
<svg xmlns="http://www.w3.org/2000/svg" xmlns:xlink="http://www.w3.org/1999/xlink" width="px" height="px" viewBox="0 0 384 384" version="1.1">
<g id="surface1">
<path style=" stroke:none;fill-rule:nonzero;fill:rgb(0%,0%,0%);fill-opacity:1;" d="M 304.875 299.699219 C 290.550781 264.675781 256.125 240 216 240 L 168 240 C 127.875 240 93.449219 264.675781 79.125 299.699219 C 52.425781 271.648438 36 233.773438 36 192 C 36 105.824219 105.824219 36 192 36 C 278.175781 36 348 105.824219 348 192 C 348 233.773438 331.574219 271.648438 304.875 299.699219 Z M 274.800781 324.226562 C 250.800781 339.300781 222.449219 348 192 348 C 161.550781 348 133.199219 339.300781 109.125 324.226562 C 114.601562 296.699219 138.898438 276 168 276 L 216 276 C 245.101562 276 269.398438 296.699219 274.875 324.226562 Z M 192 384 C 298.039062 384 384 298.039062 384 192 C 384 85.960938 298.039062 0 192 0 C 85.960938 0 0 85.960938 0 192 C 0 298.039062 85.960938 384 192 384 Z M 192 180 C 175.429688 180 162 166.570312 162 150 C 162 133.429688 175.429688 120 192 120 C 208.570312 120 222 133.429688 222 150 C 222 166.570312 208.570312 180 192 180 Z M 126 150 C 126 186.449219 155.550781 216 192 216 C 228.449219 216 258 186.449219 258 150 C 258 113.550781 228.449219 84 192 84 C 155.550781 84 126 113.550781 126 150 Z M 126 150 "/>
</g>
</svg>
