<?xml version="1.0" encoding="UTF-8"?>
<svg xmlns="http://www.w3.org/2000/svg" xmlns:xlink="http://www.w3.org/1999/xlink" width="px" height="px" viewBox="0 0 384 384" version="1.1">
<g id="surface1">
<path style=" stroke:none;fill-rule:nonzero;fill:rgb(0%,0%,0%);fill-opacity:1;" d="M 348 192 C 348 105.84375 278.15625 36 192 36 C 105.84375 36 36 105.84375 36 192 C 36 278.15625 105.84375 348 192 348 C 278.15625 348 348 278.15625 348 192 Z M 0 192 C 0 85.960938 85.960938 0 192 0 C 298.039062 0 384 85.960938 384 192 C 384 298.039062 298.039062 384 192 384 C 85.960938 384 0 298.039062 0 192 Z M 130.949219 288.074219 C 127.574219 297.449219 117.300781 302.25 107.925781 298.875 C 98.550781 295.5 93.75 285.226562 97.125 275.851562 C 110.175781 239.550781 149.175781 216 192 216 C 234.824219 216 273.824219 239.550781 286.949219 275.925781 C 290.324219 285.300781 285.449219 295.574219 276.148438 298.949219 C 266.851562 302.324219 256.5 297.449219 253.125 288.148438 C 246.148438 268.875 222.898438 252 192 252 C 161.101562 252 137.851562 268.875 130.949219 288.074219 Z M 108.300781 156 C 108.300781 142.746094 119.046875 132 132.300781 132 C 145.554688 132 156.300781 142.746094 156.300781 156 C 156.300781 169.253906 145.554688 180 132.300781 180 C 119.046875 180 108.300781 169.253906 108.300781 156 Z M 252.300781 132 C 265.554688 132 276.300781 142.746094 276.300781 156 C 276.300781 169.253906 265.554688 180 252.300781 180 C 239.046875 180 228.300781 169.253906 228.300781 156 C 228.300781 142.746094 239.046875 132 252.300781 132 Z M 252.300781 132 "/>
</g>
</svg>
